<mxfile host="app.diagrams.net" modified="2023-01-02T14:51:03.409Z" agent="5.0 (Windows NT 10.0; Win64; x64) AppleWebKit/537.36 (KHTML, like Gecko) Chrome/108.0.0.0 Safari/537.36" version="20.7.4" etag="xq3taB-kos4abPWXLFA8" type="github">
  <diagram id="r1TOZuMJ2elaW1eEy5cO" name="‫עמוד-1‬">
    <mxGraphModel dx="1376" dy="611" grid="1" gridSize="10" guides="1" tooltips="1" connect="1" arrows="1" fold="1" page="1" pageScale="1" pageWidth="827" pageHeight="1169" math="0" shadow="0">
      <root>
        <mxCell id="0" />
        <mxCell id="1" parent="0" />
        <mxCell id="mOELGzYcHz65ofS83LtN-1" value="START" style="text;html=1;strokeColor=none;fillColor=none;align=center;verticalAlign=middle;whiteSpace=wrap;rounded=0;" vertex="1" parent="1">
          <mxGeometry x="400" y="10" width="60" height="40" as="geometry" />
        </mxCell>
        <mxCell id="mOELGzYcHz65ofS83LtN-2" value="" style="endArrow=classic;html=1;rounded=0;exitX=0.5;exitY=1;exitDx=0;exitDy=0;" edge="1" parent="1" source="mOELGzYcHz65ofS83LtN-1">
          <mxGeometry width="50" height="50" relative="1" as="geometry">
            <mxPoint x="390" y="270" as="sourcePoint" />
            <mxPoint x="370" y="90" as="targetPoint" />
          </mxGeometry>
        </mxCell>
        <mxCell id="mOELGzYcHz65ofS83LtN-3" value="" style="endArrow=classic;html=1;rounded=0;" edge="1" parent="1">
          <mxGeometry width="50" height="50" relative="1" as="geometry">
            <mxPoint x="430" y="50" as="sourcePoint" />
            <mxPoint x="490" y="90" as="targetPoint" />
          </mxGeometry>
        </mxCell>
        <mxCell id="mOELGzYcHz65ofS83LtN-4" value="fork()" style="text;html=1;strokeColor=none;fillColor=none;align=center;verticalAlign=middle;whiteSpace=wrap;rounded=0;" vertex="1" parent="1">
          <mxGeometry x="400" y="58" width="60" height="40" as="geometry" />
        </mxCell>
        <mxCell id="mOELGzYcHz65ofS83LtN-7" style="edgeStyle=orthogonalEdgeStyle;rounded=0;orthogonalLoop=1;jettySize=auto;html=1;exitX=0.5;exitY=1;exitDx=0;exitDy=0;" edge="1" parent="1" source="mOELGzYcHz65ofS83LtN-6" target="mOELGzYcHz65ofS83LtN-8">
          <mxGeometry relative="1" as="geometry">
            <mxPoint x="300" y="190" as="targetPoint" />
          </mxGeometry>
        </mxCell>
        <mxCell id="mOELGzYcHz65ofS83LtN-6" value="WatchDog" style="rounded=0;whiteSpace=wrap;html=1;" vertex="1" parent="1">
          <mxGeometry x="240" y="98" width="120" height="60" as="geometry" />
        </mxCell>
        <mxCell id="mOELGzYcHz65ofS83LtN-10" style="edgeStyle=orthogonalEdgeStyle;rounded=0;orthogonalLoop=1;jettySize=auto;html=1;exitX=0.5;exitY=1;exitDx=0;exitDy=0;entryX=0.5;entryY=0;entryDx=0;entryDy=0;" edge="1" parent="1" source="mOELGzYcHz65ofS83LtN-8" target="mOELGzYcHz65ofS83LtN-9">
          <mxGeometry relative="1" as="geometry" />
        </mxCell>
        <mxCell id="mOELGzYcHz65ofS83LtN-8" value="waits for&lt;br&gt;ping" style="rhombus;whiteSpace=wrap;html=1;" vertex="1" parent="1">
          <mxGeometry x="260" y="180" width="80" height="60" as="geometry" />
        </mxCell>
        <mxCell id="mOELGzYcHz65ofS83LtN-14" value="" style="edgeStyle=orthogonalEdgeStyle;rounded=0;orthogonalLoop=1;jettySize=auto;html=1;" edge="1" parent="1" source="mOELGzYcHz65ofS83LtN-9" target="mOELGzYcHz65ofS83LtN-13">
          <mxGeometry relative="1" as="geometry" />
        </mxCell>
        <mxCell id="mOELGzYcHz65ofS83LtN-9" value="rcv from&lt;br&gt;ping" style="rhombus;whiteSpace=wrap;html=1;" vertex="1" parent="1">
          <mxGeometry x="260" y="260" width="80" height="60" as="geometry" />
        </mxCell>
        <mxCell id="mOELGzYcHz65ofS83LtN-16" value="" style="edgeStyle=orthogonalEdgeStyle;rounded=0;orthogonalLoop=1;jettySize=auto;html=1;" edge="1" parent="1" source="mOELGzYcHz65ofS83LtN-13" target="mOELGzYcHz65ofS83LtN-15">
          <mxGeometry relative="1" as="geometry" />
        </mxCell>
        <mxCell id="mOELGzYcHz65ofS83LtN-18" style="edgeStyle=orthogonalEdgeStyle;rounded=0;orthogonalLoop=1;jettySize=auto;html=1;exitX=1;exitY=0.5;exitDx=0;exitDy=0;" edge="1" parent="1" source="mOELGzYcHz65ofS83LtN-13" target="mOELGzYcHz65ofS83LtN-19">
          <mxGeometry relative="1" as="geometry">
            <mxPoint x="380" y="400" as="targetPoint" />
            <Array as="points">
              <mxPoint x="380" y="371" />
            </Array>
          </mxGeometry>
        </mxCell>
        <mxCell id="mOELGzYcHz65ofS83LtN-13" value="has data?" style="ellipse;whiteSpace=wrap;html=1;" vertex="1" parent="1">
          <mxGeometry x="269" y="346" width="60" height="50" as="geometry" />
        </mxCell>
        <mxCell id="mOELGzYcHz65ofS83LtN-17" style="edgeStyle=orthogonalEdgeStyle;rounded=0;orthogonalLoop=1;jettySize=auto;html=1;exitX=0.5;exitY=1;exitDx=0;exitDy=0;entryX=0;entryY=0.5;entryDx=0;entryDy=0;" edge="1" parent="1" source="mOELGzYcHz65ofS83LtN-15" target="mOELGzYcHz65ofS83LtN-9">
          <mxGeometry relative="1" as="geometry">
            <Array as="points">
              <mxPoint x="300" y="500" />
              <mxPoint x="190" y="500" />
              <mxPoint x="190" y="290" />
            </Array>
          </mxGeometry>
        </mxCell>
        <mxCell id="mOELGzYcHz65ofS83LtN-15" value="10 sec&lt;br&gt;pass?" style="ellipse;whiteSpace=wrap;html=1;" vertex="1" parent="1">
          <mxGeometry x="269" y="423" width="61" height="57" as="geometry" />
        </mxCell>
        <mxCell id="mOELGzYcHz65ofS83LtN-20" style="edgeStyle=orthogonalEdgeStyle;rounded=0;orthogonalLoop=1;jettySize=auto;html=1;exitX=0.5;exitY=1;exitDx=0;exitDy=0;" edge="1" parent="1" source="mOELGzYcHz65ofS83LtN-19">
          <mxGeometry relative="1" as="geometry">
            <mxPoint x="381" y="480" as="targetPoint" />
          </mxGeometry>
        </mxCell>
        <mxCell id="mOELGzYcHz65ofS83LtN-19" value="restart&lt;br&gt;timer" style="rhombus;whiteSpace=wrap;html=1;" vertex="1" parent="1">
          <mxGeometry x="350" y="390" width="61" height="64" as="geometry" />
        </mxCell>
        <mxCell id="mOELGzYcHz65ofS83LtN-21" value="got &#39;E&#39;?" style="ellipse;whiteSpace=wrap;html=1;" vertex="1" parent="1">
          <mxGeometry x="350" y="480" width="60" height="50" as="geometry" />
        </mxCell>
        <mxCell id="mOELGzYcHz65ofS83LtN-22" value="" style="endArrow=classic;html=1;rounded=0;entryX=1;entryY=1;entryDx=0;entryDy=0;" edge="1" parent="1">
          <mxGeometry width="50" height="50" relative="1" as="geometry">
            <mxPoint x="354" y="486" as="sourcePoint" />
            <mxPoint x="328.07937265028863" y="463.64074780693613" as="targetPoint" />
          </mxGeometry>
        </mxCell>
        <mxCell id="mOELGzYcHz65ofS83LtN-23" value="" style="endArrow=classic;html=1;rounded=0;" edge="1" parent="1">
          <mxGeometry width="50" height="50" relative="1" as="geometry">
            <mxPoint x="310" y="483" as="sourcePoint" />
            <mxPoint x="310" y="583" as="targetPoint" />
          </mxGeometry>
        </mxCell>
        <mxCell id="mOELGzYcHz65ofS83LtN-24" value="" style="endArrow=classic;html=1;rounded=0;" edge="1" parent="1">
          <mxGeometry x="0.74" y="50" width="50" height="50" relative="1" as="geometry">
            <mxPoint x="379.5" y="535" as="sourcePoint" />
            <mxPoint x="320" y="580" as="targetPoint" />
            <mxPoint as="offset" />
          </mxGeometry>
        </mxCell>
        <mxCell id="mOELGzYcHz65ofS83LtN-25" value="CLOSE()" style="text;html=1;strokeColor=none;fillColor=none;align=center;verticalAlign=middle;whiteSpace=wrap;rounded=0;" vertex="1" parent="1">
          <mxGeometry x="290" y="590" width="60" height="30" as="geometry" />
        </mxCell>
        <mxCell id="mOELGzYcHz65ofS83LtN-26" value="Y" style="text;html=1;strokeColor=none;fillColor=none;align=center;verticalAlign=middle;whiteSpace=wrap;rounded=0;" vertex="1" parent="1">
          <mxGeometry x="338" y="554.5" width="60" height="30" as="geometry" />
        </mxCell>
        <mxCell id="mOELGzYcHz65ofS83LtN-28" value="Y" style="text;html=1;strokeColor=none;fillColor=none;align=center;verticalAlign=middle;whiteSpace=wrap;rounded=0;" vertex="1" parent="1">
          <mxGeometry x="265" y="536.5" width="60" height="30" as="geometry" />
        </mxCell>
        <mxCell id="mOELGzYcHz65ofS83LtN-29" value="N" style="text;html=1;strokeColor=none;fillColor=none;align=center;verticalAlign=middle;whiteSpace=wrap;rounded=0;" vertex="1" parent="1">
          <mxGeometry x="222" y="472.5" width="60" height="30" as="geometry" />
        </mxCell>
        <mxCell id="mOELGzYcHz65ofS83LtN-30" value="N" style="text;html=1;strokeColor=none;fillColor=none;align=center;verticalAlign=middle;whiteSpace=wrap;rounded=0;" vertex="1" parent="1">
          <mxGeometry x="311" y="480.5" width="60" height="30" as="geometry" />
        </mxCell>
        <mxCell id="mOELGzYcHz65ofS83LtN-32" value="N" style="text;html=1;strokeColor=none;fillColor=none;align=center;verticalAlign=middle;whiteSpace=wrap;rounded=0;" vertex="1" parent="1">
          <mxGeometry x="247" y="394.5" width="60" height="30" as="geometry" />
        </mxCell>
        <mxCell id="mOELGzYcHz65ofS83LtN-33" value="Y" style="text;html=1;strokeColor=none;fillColor=none;align=center;verticalAlign=middle;whiteSpace=wrap;rounded=0;" vertex="1" parent="1">
          <mxGeometry x="314" y="343.5" width="60" height="30" as="geometry" />
        </mxCell>
        <mxCell id="mOELGzYcHz65ofS83LtN-34" value="NewPing" style="rounded=0;whiteSpace=wrap;html=1;" vertex="1" parent="1">
          <mxGeometry x="460" y="98" width="120" height="60" as="geometry" />
        </mxCell>
        <mxCell id="mOELGzYcHz65ofS83LtN-38" style="edgeStyle=orthogonalEdgeStyle;rounded=0;orthogonalLoop=1;jettySize=auto;html=1;exitX=0.5;exitY=1;exitDx=0;exitDy=0;" edge="1" parent="1" target="mOELGzYcHz65ofS83LtN-40">
          <mxGeometry relative="1" as="geometry">
            <mxPoint x="534" y="192" as="targetPoint" />
            <mxPoint x="534" y="160" as="sourcePoint" />
          </mxGeometry>
        </mxCell>
        <mxCell id="mOELGzYcHz65ofS83LtN-39" style="edgeStyle=orthogonalEdgeStyle;rounded=0;orthogonalLoop=1;jettySize=auto;html=1;exitX=0.5;exitY=1;exitDx=0;exitDy=0;entryX=0.5;entryY=0;entryDx=0;entryDy=0;" edge="1" parent="1" source="mOELGzYcHz65ofS83LtN-40" target="mOELGzYcHz65ofS83LtN-41">
          <mxGeometry relative="1" as="geometry" />
        </mxCell>
        <mxCell id="mOELGzYcHz65ofS83LtN-40" value="loads data" style="rhombus;whiteSpace=wrap;html=1;" vertex="1" parent="1">
          <mxGeometry x="494" y="182" width="81" height="60" as="geometry" />
        </mxCell>
        <mxCell id="mOELGzYcHz65ofS83LtN-41" value="connect to&amp;nbsp;&lt;br&gt;watchdog" style="rhombus;whiteSpace=wrap;html=1;" vertex="1" parent="1">
          <mxGeometry x="494" y="262" width="81" height="60" as="geometry" />
        </mxCell>
        <mxCell id="mOELGzYcHz65ofS83LtN-43" value="" style="endArrow=none;dashed=1;html=1;dashPattern=1 3;strokeWidth=2;rounded=0;" edge="1" parent="1">
          <mxGeometry width="50" height="50" relative="1" as="geometry">
            <mxPoint x="480" y="280" as="sourcePoint" />
            <mxPoint x="360" y="210" as="targetPoint" />
          </mxGeometry>
        </mxCell>
        <mxCell id="mOELGzYcHz65ofS83LtN-44" style="edgeStyle=orthogonalEdgeStyle;rounded=0;orthogonalLoop=1;jettySize=auto;html=1;exitX=0.5;exitY=1;exitDx=0;exitDy=0;entryX=0.5;entryY=0;entryDx=0;entryDy=0;" edge="1" parent="1" target="mOELGzYcHz65ofS83LtN-45">
          <mxGeometry relative="1" as="geometry">
            <mxPoint x="534.5" y="321" as="sourcePoint" />
          </mxGeometry>
        </mxCell>
        <mxCell id="mOELGzYcHz65ofS83LtN-48" style="edgeStyle=orthogonalEdgeStyle;rounded=0;orthogonalLoop=1;jettySize=auto;html=1;exitX=0.5;exitY=1;exitDx=0;exitDy=0;" edge="1" parent="1" source="mOELGzYcHz65ofS83LtN-45" target="mOELGzYcHz65ofS83LtN-49">
          <mxGeometry relative="1" as="geometry">
            <mxPoint x="610" y="440" as="targetPoint" />
          </mxGeometry>
        </mxCell>
        <mxCell id="mOELGzYcHz65ofS83LtN-45" value="send&lt;br&gt;PING" style="rhombus;whiteSpace=wrap;html=1;" vertex="1" parent="1">
          <mxGeometry x="494" y="341" width="81" height="60" as="geometry" />
        </mxCell>
        <mxCell id="mOELGzYcHz65ofS83LtN-46" value="" style="endArrow=classic;startArrow=classic;html=1;rounded=0;" edge="1" parent="1">
          <mxGeometry width="50" height="50" relative="1" as="geometry">
            <mxPoint x="590" y="370" as="sourcePoint" />
            <mxPoint x="620" y="370" as="targetPoint" />
          </mxGeometry>
        </mxCell>
        <mxCell id="mOELGzYcHz65ofS83LtN-47" value="Google&lt;br&gt;8.8.8.8" style="ellipse;shape=cloud;whiteSpace=wrap;html=1;" vertex="1" parent="1">
          <mxGeometry x="620" y="330" width="120" height="80" as="geometry" />
        </mxCell>
        <mxCell id="mOELGzYcHz65ofS83LtN-51" style="edgeStyle=orthogonalEdgeStyle;rounded=0;orthogonalLoop=1;jettySize=auto;html=1;exitX=1;exitY=1;exitDx=0;exitDy=0;" edge="1" parent="1" source="mOELGzYcHz65ofS83LtN-49">
          <mxGeometry relative="1" as="geometry">
            <mxPoint x="700" y="490" as="targetPoint" />
            <Array as="points">
              <mxPoint x="660" y="470" />
              <mxPoint x="700" y="470" />
            </Array>
          </mxGeometry>
        </mxCell>
        <mxCell id="mOELGzYcHz65ofS83LtN-53" style="edgeStyle=orthogonalEdgeStyle;rounded=0;orthogonalLoop=1;jettySize=auto;html=1;exitX=0;exitY=0.5;exitDx=0;exitDy=0;entryX=0.753;entryY=0.125;entryDx=0;entryDy=0;entryPerimeter=0;" edge="1" parent="1" source="mOELGzYcHz65ofS83LtN-49" target="mOELGzYcHz65ofS83LtN-54">
          <mxGeometry relative="1" as="geometry">
            <mxPoint x="540" y="465" as="targetPoint" />
            <Array as="points">
              <mxPoint x="590" y="465" />
              <mxPoint x="590" y="480" />
            </Array>
          </mxGeometry>
        </mxCell>
        <mxCell id="mOELGzYcHz65ofS83LtN-49" value="succesed?" style="ellipse;whiteSpace=wrap;html=1;" vertex="1" parent="1">
          <mxGeometry x="600" y="440" width="70" height="50" as="geometry" />
        </mxCell>
        <mxCell id="mOELGzYcHz65ofS83LtN-55" style="edgeStyle=orthogonalEdgeStyle;rounded=0;orthogonalLoop=1;jettySize=auto;html=1;exitX=0;exitY=0.5;exitDx=0;exitDy=0;" edge="1" parent="1" source="mOELGzYcHz65ofS83LtN-50" target="mOELGzYcHz65ofS83LtN-54">
          <mxGeometry relative="1" as="geometry" />
        </mxCell>
        <mxCell id="mOELGzYcHz65ofS83LtN-50" value="send &#39;P&#39;&lt;br&gt;to watchdog&lt;br&gt;" style="rhombus;whiteSpace=wrap;html=1;" vertex="1" parent="1">
          <mxGeometry x="659" y="494.5" width="81" height="60" as="geometry" />
        </mxCell>
        <mxCell id="mOELGzYcHz65ofS83LtN-59" style="edgeStyle=orthogonalEdgeStyle;rounded=0;orthogonalLoop=1;jettySize=auto;html=1;exitX=0;exitY=0;exitDx=0;exitDy=0;entryX=0.038;entryY=0.687;entryDx=0;entryDy=0;entryPerimeter=0;" edge="1" parent="1" source="mOELGzYcHz65ofS83LtN-54" target="mOELGzYcHz65ofS83LtN-45">
          <mxGeometry relative="1" as="geometry" />
        </mxCell>
        <mxCell id="mOELGzYcHz65ofS83LtN-54" value="more&lt;br&gt;pings?" style="rhombus;whiteSpace=wrap;html=1;" vertex="1" parent="1">
          <mxGeometry x="496" y="471.5" width="81" height="60" as="geometry" />
        </mxCell>
        <mxCell id="mOELGzYcHz65ofS83LtN-60" style="edgeStyle=orthogonalEdgeStyle;rounded=0;orthogonalLoop=1;jettySize=auto;html=1;exitX=0.5;exitY=1;exitDx=0;exitDy=0;entryX=0.5;entryY=0;entryDx=0;entryDy=0;" edge="1" parent="1" target="mOELGzYcHz65ofS83LtN-61">
          <mxGeometry relative="1" as="geometry">
            <mxPoint x="536.5" y="532" as="sourcePoint" />
          </mxGeometry>
        </mxCell>
        <mxCell id="mOELGzYcHz65ofS83LtN-62" style="edgeStyle=orthogonalEdgeStyle;rounded=0;orthogonalLoop=1;jettySize=auto;html=1;exitX=0;exitY=0.5;exitDx=0;exitDy=0;" edge="1" parent="1" source="mOELGzYcHz65ofS83LtN-61">
          <mxGeometry relative="1" as="geometry">
            <mxPoint x="360" y="600" as="targetPoint" />
          </mxGeometry>
        </mxCell>
        <mxCell id="mOELGzYcHz65ofS83LtN-61" value="send &#39;E&#39;&lt;br style=&quot;border-color: var(--border-color);&quot;&gt;to watchdog" style="rhombus;whiteSpace=wrap;html=1;" vertex="1" parent="1">
          <mxGeometry x="496" y="552" width="81" height="60" as="geometry" />
        </mxCell>
        <mxCell id="mOELGzYcHz65ofS83LtN-63" value="Y" style="text;html=1;strokeColor=none;fillColor=none;align=center;verticalAlign=middle;whiteSpace=wrap;rounded=0;" vertex="1" parent="1">
          <mxGeometry x="476" y="464.5" width="60" height="30" as="geometry" />
        </mxCell>
        <mxCell id="mOELGzYcHz65ofS83LtN-64" value="Y" style="text;html=1;strokeColor=none;fillColor=none;align=center;verticalAlign=middle;whiteSpace=wrap;rounded=0;" vertex="1" parent="1">
          <mxGeometry x="656" y="444.5" width="60" height="30" as="geometry" />
        </mxCell>
        <mxCell id="mOELGzYcHz65ofS83LtN-65" value="N" style="text;html=1;strokeColor=none;fillColor=none;align=center;verticalAlign=middle;whiteSpace=wrap;rounded=0;" vertex="1" parent="1">
          <mxGeometry x="504.5" y="440" width="60" height="30" as="geometry" />
        </mxCell>
        <mxCell id="mOELGzYcHz65ofS83LtN-66" value="N" style="text;html=1;strokeColor=none;fillColor=none;align=center;verticalAlign=middle;whiteSpace=wrap;rounded=0;" vertex="1" parent="1">
          <mxGeometry x="520" y="529.5" width="60" height="30" as="geometry" />
        </mxCell>
      </root>
    </mxGraphModel>
  </diagram>
</mxfile>
